PathFileType   4   (X/Y/Z)
DataRate	CameraRate	NumFrames	NumMarkers	Units	OrigDataRate	OrigDataStartFrame	OrigNumFrames
120.0	120.0	6	37	mm	120.0	83	96
Frame#	Time	midhip	hip_r	hip_l	knee_r	knee_l	ankle_r	ankle_l	midasis	asis_r	asis_l	psis_r	psis_l	epicondLat_r	epicondLat_l	epicondMed_r	epicondMed_l	malleolusLat_r	malleolusLat_l	malleolusMedv_r	malleolusMedv_l	neck	subclavicle_r	subclavicle_l	sternalnotch	xyphoidprocess	thighwand_r	thighwand_l	upperleg1_r	upperleg1_l	upperleg2_r	upperleg2_l	shankwand_r	shankwand_l	lowerleg1_r	lowerleg1_l	toe_r	toe_l
 	 	X1	Y1	Z1	X2	Y2	Z2	X3	Y3	Z3	X4	Y4	Z4	X5	Y5	Z5	X6	Y6	Z6	X7	Y7	Z7	X8	Y8	Z8	X9	Y9	Z9	X10	Y10	Z10	X11	Y11	Z11	X12	Y12	Z12	X13	Y13	Z13	X14	Y14	Z14	X15	Y15	Z15	X16	Y16	Z16	X17	Y17	Z17	X18	Y18	Z18	X19	Y19	Z19	X20	Y20	Z20	X21	Y21	Z21	X22	Y22	Z22	X23	Y23	Z23	X24	Y24	Z24	X25	Y25	Z25	X26	Y26	Z26	X27	Y27	Z27	X28	Y28	Z28	X29	Y29	Z29	X30	Y30	Z30	X31	Y31	Z31	X32	Y32	Z32	X33	Y33	Z33	X34	Y34	Z34	X35	Y35	Z35	X36	Y36	Z36	X37	Y37	Z37

	83	0.77500	1512.428	609.742	-296.467	1511.854	622.406	-245.468	1516.923	622.770	-362.803	1647.717	344.372	-218.789	1404.845	346.848	-359.542	1770.069	81.599	-191.743	1315.127	69.236	-371.148	1558.947	684.313	-302.020	1555.161	684.041	-214.389	1562.732	684.584	-389.650	1426.174	701.745	-252.463	1427.223	702.032	-338.167	1648.545	349.166	-173.047	1402.490	347.238	-407.482	1641.743	333.920	-261.971	1400.419	349.346	-317.897	1758.716	79.550	-160.292	1305.720	73.565	-401.954	1775.328	87.281	-218.026	1314.038	68.100	-337.267	1515.009	1016.586	-314.666	1605.327	942.652	-268.945	1603.437	940.487	-358.289	1590.880	955.919	-305.757	1624.493	817.737	-308.465	1718.256	470.231	-258.097	1493.518	403.192	-464.025	1630.679	490.848	-204.415	1509.408	454.334	-381.586	1659.345	408.034	-198.302	1472.137	377.898	-364.731	1723.946	180.615	-94.075	1438.787	154.167	-346.367	1711.204	220.210	-161.527	1390.876	218.338	-364.227	1854.450	95.848	-178.058	1395.168	36.649	-378.425
	84	0.78333	1524.365	606.331	-296.389	1524.373	618.934	-245.287	1528.200	619.641	-362.668	1661.452	341.645	-218.200	1412.049	345.965	-359.685	1795.359	83.948	-191.595	1316.084	70.335	-371.633	1570.891	680.988	-302.152	1568.028	680.459	-214.356	1573.754	681.517	-389.947	1438.425	698.329	-250.935	1438.761	698.897	-336.720	1662.655	346.705	-172.494	1409.073	346.706	-407.587	1654.938	329.548	-259.615	1408.055	348.213	-318.126	1784.326	81.471	-160.061	1306.864	74.882	-402.464	1800.774	91.120	-218.169	1314.716	69.123	-337.753	1527.708	1012.944	-313.310	1618.198	938.525	-268.550	1615.620	936.831	-358.280	1603.487	952.077	-305.303	1636.739	813.769	-309.068	1730.943	467.146	-258.701	1500.150	401.550	-464.884	1643.247	487.270	-204.359	1517.888	451.778	-382.696	1672.414	404.688	-197.139	1479.588	375.861	-365.776	1745.576	181.375	-93.578	1441.425	152.719	-346.518	1730.927	220.920	-161.062	1394.868	217.682	-364.512	1880.240	99.764	-178.534	1395.440	36.683	-378.494
	85	0.79167	1536.496	602.927	-296.232	1537.015	615.502	-245.029	1539.701	616.475	-362.439	1675.694	339.226	-217.623	1419.648	344.992	-359.799	1818.437	85.671	-191.774	1317.193	71.606	-372.185	1583.022	677.654	-302.201	1581.010	676.925	-214.256	1585.034	678.383	-390.146	1450.854	694.959	-249.463	1450.563	695.770	-335.285	1677.129	344.477	-171.946	1416.041	346.122	-407.650	1668.872	326.074	-257.292	1416.031	347.341	-318.278	1807.585	82.779	-160.213	1308.169	76.386	-403.039	1823.755	94.306	-218.670	1315.548	70.414	-338.365	1540.555	1009.378	-311.794	1631.205	934.532	-268.049	1627.992	933.502	-358.108	1616.202	948.382	-304.678	1649.269	810.050	-309.785	1744.131	464.824	-258.969	1507.086	399.902	-465.729	1656.519	484.479	-204.040	1526.907	449.307	-384.014	1686.244	402.078	-195.889	1487.272	373.733	-366.828	1765.529	181.570	-93.336	1444.223	151.255	-346.714	1749.401	221.331	-160.896	1399.054	217.024	-364.885	1903.795	102.123	-179.462	1395.753	36.761	-378.601
	86	0.80000	1548.870	599.581	-295.930	1549.803	612.161	-244.662	1551.452	613.311	-362.090	1690.493	337.193	-217.132	1427.615	343.971	-359.863	1839.242	86.479	-192.183	1318.481	73.084	-372.783	1595.360	674.358	-302.145	1594.123	673.496	-214.063	1596.597	675.220	-390.227	1463.503	691.678	-248.072	1462.649	692.689	-333.868	1692.034	342.553	-171.472	1423.405	345.512	-407.654	1683.827	323.773	-255.700	1424.468	346.592	-318.342	1828.425	83.200	-160.647	1309.657	78.112	-403.656	1844.185	96.284	-219.223	1316.461	71.981	-339.010	1553.440	1005.902	-310.067	1644.261	930.662	-267.405	1640.408	930.396	-357.608	1629.039	944.870	-303.861	1661.904	806.520	-310.399	1757.806	463.385	-258.989	1514.401	398.261	-466.496	1670.461	482.502	-203.627	1536.316	446.961	-385.437	1700.931	400.390	-195.001	1495.314	371.649	-367.844	1783.813	181.078	-93.321	1447.204	149.815	-346.956	1766.707	221.069	-160.840	1403.543	216.543	-365.263	1925.012	102.664	-180.761	1396.123	36.881	-378.745
	87	0.80833	1561.494	596.350	-295.475	1562.761	608.947	-244.178	1563.470	610.187	-361.614	1705.876	335.583	-216.778	1435.926	342.937	-359.858	1857.739	86.153	-192.759	1319.981	74.794	-373.400	1607.930	671.135	-301.976	1607.398	670.204	-213.770	1608.463	672.066	-390.181	1476.423	688.525	-246.758	1475.036	689.698	-332.472	1707.409	340.963	-171.120	1431.177	344.890	-407.583	1699.978	322.736	-255.068	1433.052	345.569	-318.512	1846.833	82.543	-161.290	1311.352	80.085	-404.284	1862.062	96.732	-219.741	1317.481	73.834	-339.657	1566.383	1002.586	-308.109	1657.428	926.998	-266.646	1652.882	927.480	-356.716	1642.008	941.563	-302.826	1674.664	803.207	-310.751	1771.940	462.837	-258.800	1522.171	396.631	-467.128	1684.958	481.339	-203.152	1545.757	444.502	-386.375	1716.509	399.694	-194.613	1503.687	369.721	-368.719	1800.535	179.839	-93.512	1450.395	148.422	-347.237	1782.901	220.083	-160.867	1408.322	216.238	-365.528	1943.823	101.288	-182.346	1396.575	37.035	-378.909
	88	0.81667	1574.375	593.261	-294.856	1575.919	605.875	-243.591	1575.767	607.146	-361.029	1721.831	334.374	-216.585	1444.580	341.911	-359.766	1873.936	84.582	-193.476	1321.730	76.755	-374.009	1620.763	668.006	-301.702	1620.877	667.051	-213.392	1620.649	668.962	-390.013	1489.665	685.536	-245.497	1487.735	686.846	-331.097	1723.248	339.679	-170.914	1439.378	344.258	-407.425	1716.949	322.695	-254.982	1441.779	344.318	-318.653	1862.852	80.735	-162.098	1313.286	82.326	-404.894	1877.533	95.505	-220.396	1318.860	75.911	-340.333	1579.477	999.451	-305.918	1670.761	923.574	-265.669	1665.637	924.848	-355.593	1655.121	938.469	-301.536	1687.748	800.182	-310.922	1786.498	463.076	-258.400	1530.458	395.010	-467.586	1699.887	480.935	-202.547	1555.251	442.013	-386.798	1732.742	399.728	-194.440	1512.387	367.891	-369.306	1815.874	177.856	-93.897	1453.832	147.084	-347.552	1798.270	218.445	-161.039	1413.407	216.006	-365.718	1960.218	98.048	-184.139	1397.130	37.209	-379.077
